<?xml version="1.0" encoding="utf-8"?>
<!-- Generator: Adobe Illustrator 17.0.0, SVG Export Plug-In . SVG Version: 6.00 Build 0)  -->
<!DOCTYPE svg PUBLIC "-//W3C//DTD SVG 1.1//EN" "http://www.w3.org/Graphics/SVG/1.1/DTD/svg11.dtd">
<svg version="1.1" id="Layer_1" xmlns="http://www.w3.org/2000/svg" xmlns:xlink="http://www.w3.org/1999/xlink" x="0px" y="0px"
	 width="607px" height="254.889px" viewBox="0 0 607 254.889" enable-background="new 0 0 607 254.889" xml:space="preserve">
<rect y="0" fill-rule="evenodd" clip-rule="evenodd" fill="#4AA4D8" width="607" height="254.889"/>
<g>
	<g>
		<path fill="#FFFFFF" d="M200.505,111.263c3.182,0,6.201,0.618,9.061,1.852c2.857,1.234,5.358,2.923,7.502,5.066
			c2.143,2.143,3.848,4.645,5.114,7.501c1.267,2.859,1.9,5.911,1.9,9.158c0,3.249-0.602,6.301-1.803,9.158
			c-1.203,2.858-2.858,5.358-4.969,7.502c-2.111,2.143-4.612,3.833-7.502,5.066c-2.891,1.234-5.991,1.852-9.304,1.852
			c-4.092,0-8.769-1.331-14.029-3.995v14.322c0,1.298-0.455,2.401-1.364,3.312c-0.91,0.908-2.079,1.363-3.507,1.363
			c-1.234,0-2.323-0.423-3.264-1.267c-0.942-0.845-1.446-1.884-1.511-3.117V134.84c0-3.182,0.634-6.201,1.9-9.061
			c1.267-2.857,2.972-5.358,5.114-7.502c2.144-2.143,4.644-3.848,7.502-5.114C194.204,111.896,197.256,111.263,200.505,111.263z
			 M186.476,134.84c0,2.079,0.373,3.979,1.12,5.699c0.746,1.722,1.77,3.215,3.069,4.481c1.298,1.267,2.792,2.241,4.482,2.923
			c1.689,0.683,3.474,1.023,5.358,1.023c1.948,0,3.783-0.373,5.505-1.121c1.72-0.745,3.198-1.769,4.433-3.068
			c1.232-1.299,2.207-2.792,2.923-4.482c0.714-1.688,1.071-3.508,1.071-5.456c0-1.948-0.374-3.766-1.12-5.456
			c-0.748-1.688-1.754-3.166-3.021-4.433c-1.267-1.267-2.744-2.256-4.433-2.972c-1.689-0.714-3.476-1.071-5.358-1.071
			c-2.014,0-3.865,0.374-5.554,1.12c-1.689,0.748-3.166,1.754-4.433,3.021c-1.267,1.267-2.258,2.744-2.972,4.433
			C186.832,131.171,186.476,132.957,186.476,134.84z"/>
		<path fill="#FFFFFF" d="M232.558,158.417c-1.235,0-2.29-0.454-3.167-1.364c-0.877-0.909-1.412-2.013-1.607-3.312v-19.582
			c0.064-3.182,0.73-6.138,1.997-8.866c1.267-2.728,2.972-5.114,5.115-7.16c2.144-2.046,4.628-3.669,7.453-4.871
			c2.825-1.201,5.828-1.867,9.012-1.998c1.232,0.065,2.305,0.585,3.215,1.56c0.909,0.974,1.461,2.046,1.656,3.215
			c-0.131,1.234-0.65,2.323-1.558,3.264c-0.91,0.942-2.015,1.446-3.312,1.51c-1.885,0-3.67,0.358-5.358,1.072
			c-1.689,0.715-3.166,1.704-4.433,2.971c-1.267,1.267-2.274,2.745-3.02,4.433c-0.747,1.689-1.12,3.54-1.12,5.553v19.388
			c-0.195,1.105-0.731,2.079-1.607,2.923C234.944,157.995,233.855,158.417,232.558,158.417z"/>
		<path fill="#FFFFFF" d="M278.445,110.971c3.118,0,6.121,0.667,9.012,1.997c2.89,1.332,5.423,3.086,7.6,5.261
			c2.175,2.178,3.929,4.71,5.261,7.6c1.331,2.891,1.997,5.895,1.997,9.012c0,1.3-0.486,2.452-1.461,3.459
			c-0.975,1.008-2.209,1.477-3.702,1.412h-32.735c1.884,3.378,4.075,5.782,6.576,7.21c2.5,1.429,4.984,2.144,7.453,2.144
			c1.364,0,2.533-0.162,3.508-0.487c0.974-0.324,1.817-0.617,2.533-0.877c0.843-0.585,1.785-0.877,2.825-0.877
			c1.428,0.131,2.582,0.698,3.458,1.705c0.877,1.008,1.315,2.095,1.315,3.264c0,0.52-0.082,1.071-0.243,1.656
			c-0.163,0.584-0.504,1.105-1.023,1.559l0.098-0.194c-1.689,1.363-3.604,2.338-5.748,2.922c-2.144,0.585-4.418,0.909-6.819,0.975
			c-3.184,0.13-6.221-0.439-9.109-1.705c-2.891-1.267-5.424-3.003-7.6-5.212c-2.177-2.207-3.896-4.774-5.163-7.696
			c-1.267-2.923-1.9-6.007-1.9-9.256c0-3.117,0.634-6.121,1.9-9.012c1.267-2.89,3.003-5.422,5.212-7.6
			c2.207-2.175,4.74-3.929,7.6-5.261C272.145,111.638,275.197,110.971,278.445,110.971z M292.475,129.579
			c-1.559-2.597-3.556-4.726-5.991-6.382c-2.436-1.656-5.115-2.484-8.038-2.484c-3.054,0-5.797,0.846-8.232,2.533
			c-2.436,1.69-4.335,3.768-5.699,6.235c-0.131,0.131-0.194,0.261-0.194,0.39h28.253c-0.065,0-0.098-0.032-0.098-0.098V129.579z"/>
		<path fill="#FFFFFF" d="M348.298,96.162c1.104-0.063,2.144,0.375,3.117,1.315c0.975,0.942,1.462,1.965,1.462,3.068v34.196
			c0,3.184-0.65,6.203-1.949,9.061c-1.3,2.859-3.054,5.358-5.261,7.502c-2.209,2.144-4.725,3.849-7.55,5.115
			c-2.826,1.267-5.797,1.899-8.915,1.899c-3.183,0-6.203-0.616-9.06-1.851c-2.858-1.233-5.358-2.923-7.501-5.066
			c-2.143-2.144-3.849-4.644-5.115-7.502c-1.267-2.857-1.899-5.909-1.899-9.158c0-3.507,0.567-6.591,1.704-9.255
			c1.136-2.662,2.841-5.164,5.115-7.502v0.098c2.402-2.272,5.05-3.994,7.94-5.164c2.889-1.169,5.86-1.753,8.914-1.753
			c1.817,0,3.977,0.292,6.478,0.877c2.5,0.584,4.984,1.722,7.453,3.409v-14.419c0-0.648,0.13-1.267,0.39-1.851
			c0.259-0.585,0.6-1.12,1.023-1.607c0.421-0.487,0.925-0.86,1.51-1.121c0.585-0.259,1.169-0.355,1.754-0.292H348.298z
			 M343.231,134.742c0-1.753-0.374-3.474-1.12-5.163c-0.748-1.688-1.771-3.198-3.069-4.53c-1.3-1.33-2.793-2.387-4.482-3.166
			c-1.689-0.78-3.475-1.17-5.358-1.17c-1.885,0-3.686,0.375-5.407,1.121c-1.722,0.747-3.215,1.753-4.481,3.02
			c-1.267,1.267-2.274,2.762-3.02,4.481c-0.748,1.722-1.121,3.524-1.121,5.407c0,1.949,0.373,3.768,1.121,5.456
			c0.745,1.689,1.753,3.166,3.02,4.433s2.76,2.274,4.481,3.02c1.721,0.747,3.522,1.12,5.407,1.12c1.883,0,3.669-0.373,5.358-1.12
			c1.689-0.746,3.182-1.754,4.482-3.02c1.299-1.267,2.321-2.743,3.069-4.433C342.857,138.51,343.231,136.691,343.231,134.742z"/>
		<path fill="#FFFFFF" d="M368.173,101.131c0,1.43-0.487,2.647-1.462,3.653c-0.974,1.008-2.144,1.511-3.507,1.511
			c-1.43,0-2.648-0.503-3.653-1.511c-1.008-1.006-1.511-2.224-1.511-3.653c0-1.364,0.503-2.548,1.511-3.556
			c1.006-1.007,2.224-1.511,3.653-1.511c1.363,0,2.533,0.504,3.507,1.511C367.685,98.583,368.173,99.767,368.173,101.131z
			 M363.204,158.319c-1.43,0-2.648-0.487-3.653-1.461c-1.008-0.975-1.511-2.208-1.511-3.702v-36.632
			c0-1.429,0.503-2.631,1.511-3.605c1.006-0.974,2.224-1.461,3.653-1.461c1.298,0,2.45,0.487,3.458,1.461
			c1.007,0.975,1.511,2.177,1.511,3.605v36.632c0,1.494-0.504,2.728-1.511,3.702C365.654,157.832,364.502,158.319,363.204,158.319z"
			/>
		<path fill="#FFFFFF" d="M396.62,111.166c6.493,0,12.015,2.274,16.561,6.819h-0.097c0.453,0.455,0.762,0.926,0.925,1.413
			c0.162,0.486,0.244,0.959,0.244,1.412c0,1.364-0.487,2.533-1.462,3.508c-0.455,0.455-0.991,0.779-1.607,0.974
			c-0.618,0.195-1.251,0.293-1.899,0.293c-1.43,0-2.566-0.422-3.41-1.267c-2.664-2.402-5.748-3.605-9.255-3.605
			c-1.885,0-3.688,0.39-5.407,1.17c-1.722,0.779-3.232,1.818-4.53,3.117c-1.3,1.3-2.323,2.793-3.069,4.482
			c-0.747,1.689-1.12,3.443-1.12,5.261c0,1.885,0.39,3.688,1.169,5.407c0.779,1.722,1.817,3.249,3.118,4.579
			c1.298,1.332,2.791,2.372,4.481,3.117c1.688,0.748,3.474,1.057,5.358,0.926c3.571,0,6.852-1.33,9.84-3.994
			c0.584-0.648,1.559-0.975,2.923-0.975c1.232,0,2.338,0.521,3.312,1.56c1.039,0.974,1.56,2.046,1.56,3.215
			c0,0.521-0.098,1.056-0.293,1.607c-0.194,0.553-0.486,0.991-0.876,1.315c-2.275,2.273-4.759,3.979-7.453,5.114
			c-2.696,1.138-5.699,1.705-9.012,1.705c-3.249,0-6.301-0.633-9.158-1.899c-2.859-1.267-5.358-2.972-7.502-5.115
			c-2.144-2.144-3.849-4.643-5.114-7.502c-1.267-2.857-1.9-5.877-1.9-9.061c0-3.117,0.634-6.089,1.9-8.914
			c1.266-2.825,2.986-5.325,5.163-7.502c2.175-2.175,4.691-3.912,7.551-5.212C390.416,111.815,393.436,111.166,396.62,111.166z"/>
		<path fill="#FFFFFF" d="M423.995,95.968c1.429,0,2.614,0.504,3.557,1.51c0.94,1.008,1.477,2.258,1.607,3.751v8.769h22.505
			c1.364,0,2.499,0.503,3.41,1.51c0.908,1.008,1.363,2.16,1.363,3.458c0,1.301-0.487,2.47-1.461,3.508
			c-0.975,1.04-2.08,1.559-3.312,1.559h-22.505v14.225c0,1.884,0.356,3.686,1.071,5.406c0.714,1.722,1.705,3.233,2.972,4.53
			c1.267,1.301,2.76,2.339,4.482,3.118c1.72,0.779,3.556,1.169,5.504,1.169c2.208,0,4.075-0.308,5.603-0.926
			c1.525-0.616,2.874-1.477,4.043-2.582h-0.098c0.975-0.908,2.176-1.363,3.604-1.363c1.364,0,2.566,0.487,3.605,1.461
			c0.908,0.845,1.363,1.982,1.363,3.41c0,0.52-0.082,1.057-0.243,1.607c-0.163,0.553-0.472,1.023-0.926,1.413h0.098
			c-2.274,2.208-4.759,3.896-7.453,5.066c-2.696,1.169-5.636,1.754-8.816,1.754c-3.378,0-6.576-0.567-9.597-1.705
			c-3.021-1.136-5.65-2.76-7.892-4.871c-2.24-2.11-4.043-4.643-5.407-7.6c-1.363-2.954-2.079-6.25-2.143-9.888v-33.027
			c0-1.299,0.47-2.5,1.412-3.604C421.283,96.52,422.501,95.968,423.995,95.968z"/>
		<path fill="#FFFFFF" d="M469.005,111.068c1.298,0,2.45,0.406,3.458,1.218c1.007,0.812,1.511,1.868,1.511,3.166v19.193
			c0,1.884,0.355,3.67,1.071,5.358c0.714,1.689,1.689,3.166,2.923,4.433c1.233,1.267,2.711,2.274,4.433,3.02
			c1.721,0.748,3.557,1.121,5.505,1.121c1.754,0,3.474-0.341,5.163-1.023c1.688-0.682,3.198-1.607,4.53-2.776
			c1.331-1.169,2.387-2.582,3.167-4.238c0.779-1.656,1.169-3.458,1.169-5.407v-19.387c0-1.299,0.453-2.402,1.363-3.312
			c0.909-0.909,2.046-1.364,3.41-1.364c1.299,0,2.436,0.406,3.41,1.218c0.974,0.812,1.461,1.868,1.461,3.166v53.486
			c0,1.299-0.487,2.37-1.461,3.215c-0.975,0.844-2.111,1.267-3.41,1.267c-1.234,0-2.338-0.438-3.313-1.315
			c-0.975-0.876-1.461-2.03-1.461-3.458V153.74c-2.599,1.624-5.083,2.776-7.453,3.459c-2.372,0.682-4.563,1.022-6.576,1.022
			c-3.184,0-6.203-0.616-9.061-1.851c-2.859-1.233-5.375-2.923-7.551-5.066c-2.177-2.144-3.896-4.708-5.163-7.696
			c-1.267-2.987-1.9-6.235-1.9-9.743v-18.12c0-1.299,0.454-2.402,1.364-3.312C466.504,111.523,467.641,111.068,469.005,111.068z"/>
	</g>
	<rect x="109.833" y="150.676" fill="#FFFFFF" width="15.278" height="15.278"/>
	<rect x="91.719" y="150.676" fill="#FFFFFF" width="15.277" height="15.278"/>
	<rect x="145.845" y="150.676" fill="#FFFFFF" width="15.278" height="15.278"/>
	<rect x="127.73" y="150.676" fill="#FFFFFF" width="15.278" height="15.278"/>
	<rect x="109.833" y="131.908" fill="#FFFFFF" width="15.278" height="15.278"/>
	<rect x="145.845" y="131.908" fill="#FFFFFF" width="15.278" height="15.278"/>
	<rect x="145.845" y="114.128" fill="#FFFFFF" width="15.278" height="15.275"/>
	<rect x="127.73" y="131.908" fill="#FFFFFF" width="15.278" height="15.278"/>
</g>
</svg>
